<svg width="49" height="65" viewBox="0 0 49 65" fill="none" xmlns="http://www.w3.org/2000/svg">
<path d="M49 23.7718V46.1985C49 50.3831 45.6064 53.7867 41.4342 53.7867C37.2619 53.7867 33.8699 50.3831 33.8699 46.1985V7.58661C33.8699 5.52653 32.1982 3.85144 30.1458 3.85144C28.0918 3.85144 26.42 5.52653 26.42 7.58661V57.4134C26.42 61.598 23.0265 65 18.8558 65C14.6835 65 11.2915 61.5964 11.2915 57.4134V21.8327C11.2915 19.7742 9.61983 18.0975 7.56582 18.0975C5.51338 18.0975 3.84166 19.7742 3.84166 21.8327V55.8012C3.84166 56.865 2.98152 57.7277 1.92083 57.7277C0.860145 57.7277 0 56.865 0 55.8012V21.8327C0 17.6481 3.39357 14.2461 7.56425 14.2461C11.7365 14.2461 15.1301 17.6497 15.1301 21.8327V57.4118C15.1301 59.4719 16.8002 61.147 18.8542 61.147C20.9082 61.147 22.5784 59.4719 22.5784 57.4118V7.58661C22.5784 3.40203 25.972 0 30.1442 0C34.3149 0 37.7085 3.4036 37.7085 7.58661V46.1985C37.7085 48.2586 39.3802 49.9352 41.4326 49.9352C43.4866 49.9352 45.1583 48.2586 45.1583 46.1985V23.7718C45.1583 22.708 46.0185 21.8453 47.0792 21.8453C48.1399 21.8453 49 22.708 49 23.7718Z" fill="white"/>
</svg>
