<svg width="636" height="468" viewBox="0 0 636 468" fill="none" xmlns="http://www.w3.org/2000/svg">
<g clip-path="url(#clip0_4_2)">
<path d="M636 111.934V436.014C636 453.002 622.265 466.761 605.345 466.761H277.65V467.739L78.2302 468H0C0 468 0.0487618 467.576 0.146285 466.761C1.39784 456.719 10.6788 386.992 35.9049 316.972C44.4057 293.382 63.4553 255.267 97.0685 221.048C110.462 207.402 126.163 194.393 144.432 183.16C144.627 183.03 144.839 182.916 145.034 182.785C151.162 179.036 157.582 175.498 164.295 172.205C170.504 169.156 176.973 166.303 183.702 163.711C185.132 163.157 186.563 162.619 187.993 162.113C188.025 162.097 188.058 162.081 188.09 162.081C196.526 159.016 204.865 156.554 213.057 154.598C213.674 154.435 214.292 154.288 214.926 154.158C218.095 153.424 221.232 152.756 224.353 152.185C226.856 151.712 229.359 151.289 231.83 150.897C237.372 150.033 242.834 149.397 248.197 148.941C248.555 148.908 248.913 148.876 249.287 148.859C290.994 145.485 325.989 153.408 345.429 159.016C334.636 133.551 309.962 66.7267 338.716 29.5241C358.822 3.50507 403.943 -6.56997 461.677 4.3528C532.154 17.6884 593.447 56.8799 636 111.934Z" fill="#EFEDF3"/>
<path d="M384.064 369.19C379.773 369.19 375.482 367.429 372.378 363.973C366.591 357.501 367.111 347.556 373.564 341.752L420.132 299.789L437.913 212.375C439.653 203.865 447.942 198.371 456.427 200.099C464.911 201.843 470.405 210.141 468.666 218.667L449.86 311.185C449.194 314.494 447.471 317.494 444.968 319.744L394.548 365.179C391.557 367.853 387.802 369.19 384.064 369.19Z" fill="#FACAD1"/>
<path d="M452.656 175.954C449.324 235.117 445.992 294.279 442.66 353.458H578.819C581.956 331.253 583.874 302.593 580.737 269.548C576.852 228.693 566.579 195.387 557.201 171.667C541.808 168.618 521.133 166.173 496.899 168.031C479.621 169.336 464.7 172.498 452.656 175.954Z" fill="#05A1E4"/>
<path d="M493.989 346.366C487.585 345.779 481.945 341.263 480.222 334.661C478.044 326.249 483.067 317.657 491.454 315.456L554.584 298.958L550.374 201.452C550 192.762 556.713 185.426 565.377 185.051C574.04 184.693 581.354 191.409 581.728 200.099L586.49 310.321C586.816 317.739 581.923 324.357 574.771 326.232L499.369 345.926C497.565 346.399 495.745 346.529 493.989 346.366Z" fill="#FACAD1"/>
<path d="M554.584 298.974H568.042" stroke="#E45E8E" stroke-miterlimit="10" stroke-linecap="round"/>
<path d="M586.068 249.968L535.242 251.191L533.34 171.227L548.765 170.852C568.319 170.379 584.54 185.899 585.011 205.511L586.068 249.968Z" fill="#05A1E4"/>
<path d="M425.642 252.903L476.435 254.99L479.068 190.529C479.41 181.986 472.794 174.781 464.277 174.422C444.74 173.623 428.242 188.85 427.446 208.446L425.642 252.903Z" fill="#05A1E4"/>
<path d="M546.506 250.914V204.859" stroke="#6ACCB3" stroke-width="0.8412" stroke-miterlimit="10" stroke-linecap="round"/>
<path d="M448.43 250.914L450.51 213.988" stroke="#6ACCB3" stroke-width="0.8412" stroke-miterlimit="10" stroke-linecap="round"/>
<path d="M497.126 345.16C497.695 347.784 495.956 349.936 493.274 349.936H349.915C347.233 349.936 344.567 347.784 344.014 345.16L324.754 255.87C324.185 253.245 325.924 251.093 328.606 251.093H471.965C474.647 251.093 477.313 253.245 477.866 255.87L497.126 345.16Z" fill="white"/>
<path d="M546.327 349.936H359.618C357.684 349.936 356.124 348.371 356.124 346.431C356.124 344.491 357.684 342.926 359.618 342.926H546.327C548.261 342.926 549.822 344.491 549.822 346.431C549.822 348.371 548.261 349.936 546.327 349.936Z" fill="white"/>
<path d="M438.97 120.313C438.97 120.313 417.157 103.766 426.812 95.2074C436.467 86.6485 449.6 68.0635 463.481 69.1232C477.362 70.1829 501.743 70.7534 509.057 85.9475C516.355 101.125 517.086 143.235 506.44 148.827L438.97 120.313Z" fill="#585959"/>
<path d="M516.778 167.396C515.087 173.754 511.056 185.149 501.223 193.203C498.02 195.844 493.648 199.316 487.943 198.811C483.75 198.436 480.743 196.072 479.556 194.947C474.046 189.828 473.006 180.112 476.712 170.477C476.435 169.433 476.143 168.406 475.866 167.363C474.924 163.956 473.997 160.532 473.054 157.125C472.551 155.234 472.03 153.343 471.51 151.452L497.89 133.731C498.492 134.79 499.093 135.883 499.695 136.942C500.166 137.79 500.654 138.654 501.125 139.502C506.342 148.811 511.56 158.119 516.778 167.396Z" fill="#FACACA"/>
<path d="M495.875 140.855C488.268 146.284 480.661 151.712 473.071 157.157C473.363 158.233 474.176 161.201 474.468 162.276C475.005 164.233 475.915 167.591 476.451 169.547C479.133 168.406 486.838 164.706 491.795 155.951C495.29 149.74 495.826 143.871 495.875 140.855Z" fill="#E45E8E"/>
<path d="M499.792 134.236C499.467 137.545 498.492 142.583 495.404 147.686C489.812 156.962 477.541 166.026 464.732 163.222C452.883 160.63 446.691 149.414 445.65 146.724C444.09 142.681 442.822 138.295 441.749 133.959C438.417 120.493 437.215 107.516 437.15 107.255C471.673 103.147 482.465 107.842 485.684 113.157C488.008 117.004 492.088 125.009 492.088 125.009C492.088 125.009 493.794 120.085 496.59 118.52C498.411 117.493 501.645 116.613 504.262 118.096C506.196 119.189 507.285 121.194 507.61 122.824C508.407 126.769 505.318 131.53 499.792 134.236Z" fill="#FACACA"/>
<path d="M636 349.936V373.771H275.52C268.954 373.771 263.639 368.44 263.639 361.854C263.639 358.56 264.971 355.577 267.117 353.425C269.263 351.273 272.237 349.936 275.52 349.936H636Z" fill="#FEB160"/>
<path d="M636 373.771V436.014C636 453.002 636 447.004 636 466.761H277.65V373.771H636Z" fill="#85E2FF"/>
<path d="M416.597 310.132C420.122 306.253 418.587 299.091 413.167 294.135C407.747 289.179 400.495 288.306 396.97 292.185C393.444 296.065 394.979 303.227 400.399 308.182C405.819 313.138 413.071 314.011 416.597 310.132Z" fill="#D7EEFF"/>
<path d="M455.451 126.998C456.638 130.16 457.532 133.453 458.101 136.795C457.093 136.535 455.988 137.138 455.5 138.051C455.013 138.964 455.11 140.138 455.565 141.067C456.02 141.996 456.817 142.746 457.678 143.317" stroke="#E45E8E" stroke-miterlimit="10" stroke-linecap="round"/>
<path d="M465.415 148.974C468.081 149.381 470.925 148.126 472.42 145.892" stroke="#E45E8E" stroke-miterlimit="10" stroke-linecap="round"/>
<path d="M636 411.055H277.65V420.869H636V411.055Z" fill="#5CC0F5"/>
</g>
<defs>
<clipPath id="clip0_4_2">
<rect width="636" height="468" fill="white"/>
</clipPath>
</defs>
</svg>
